PLEASEEEE SEEDDD SO WE ALL CAN ENJOY!!!!!!!

Step Up 3d The Movie

Audio : ENGLISH 
 

Complete name                    :step.up.3.t,s.2010.avi.boobies
Format                           :Video File AVI
Format/Info                      : Audio Video Interleave
File size                        : 748 MiB
Duration                         : 1h 38mn
Overall bit rate                 : 1 060 Kbps
Writing application              : VirtualDubMod 1.5.10.2 (build 2540/release)
Writing library                  : VirtualDub build 32706/release

Video
ID                               : 0
Format                           : MPEG-4 Visual
Format profile                   : Advanced Simple@L5
Format settings, BVOP            : Yes
Format settings, QPel            : No
Format settings, GMC             : No warppoints
Format settings, Matrix          : Default (H.263)
Codec ID                         : XVID
Codec ID/Hint                    : XviD
Duration                         : 1h 38mn
Bit rate                         : 922 Kbps
Width                            : 640 pixels
Height                           : 304 pixels
Display aspect ratio             : 2.2:1
Frame rate                       : 25.000 fps
Color space                      : YUV
Chroma subsampling               : 4:2:0
Bit depth                        : 8 bits
Scan type                        : Progressive
Bits/(Pixel*Frame)               : 0.190
Stream size                      : 651 MiB (87%)
Writing library                  : XviD 1.2.1 (UTC 2008-12-04)

Audio
ID                               : 1
Format                           : MPEG Audio ENGLISH LINE
Format version                   : Version 1
Format profile                   : Layer 3
Mode                             : Joint stereo
Mode extension                   : MS Stereo
Codec ID                         : 55
Codec ID/Hint                    : MP3
Duration                         : 1h 38mn
Bit rate mode                    : Constant
Bit rate                         : 128 Kbps
Channel(s)                       : 2 channels
Sampling rate                    : 48.0 KHz
Stream size                      : 90.4 MiB (12%)
Alignment                        : Split accross interleaves
Interleave, duration             : 40 ms (1.00 video frame)
Interleave, preload duration     : 500 ms
       



Step Up 3d - Soundtrackstep Up 3d

Year: 2010
Genre: Other


Artist: OST
Title Of Album: Step Up 3D
Year Of Release: 2010
Genre: Soundtrack
Quality: 128-320 Kbps / 44 kHz / Stereo
Total Size: 195 MB


Tracklist:


1. Airplanes (feat. Hayley Williams of Paramore)
2. B.O.B. feat. playboy tre and t.i. - bet i bust
3. Benny Benassi ft Channing - Come Fly Away
4. Benny Benassi ft. Channing - Come fly away
5. Danity Kane - 2 of you
6. Dizzee Rascal Ft. Justice & Genesis - Fix Up, Look Sharp
7. Dj Dgrow - Barbie Sounds
8. DJ Frank E ft. Dada Life & Tiesto - Squeeze it step up 3
9. Flo Rida - Club Can\'t Handle Me (Ft. David Guetta)
10. Flo rida -Drake -Transporta- Trey Songz etc
11. Flo Rida feat. Nelly Furtado - Jump
12. Justice - Genesis
13. Kalio ft. Roscoe Dash - Ballin
14. Kaye Styles - Brother like you
15. Kaye Styles - First Born - 4 All the Lies Ft Lisha Not Profane Remix
16. Keyshia - Qualify
17. Lauren Evans - Dream Awake
18. Laza Morgan - This Girl
19. Lil Wayne ft. baby the birdman - Pop bottles
20. Linkin Park - Step Up
21. Mary J Blige - Queen
22. One Week & David Guetta - Untitled
23. OST Step Up 3D - Episode finale dance
24. Roscoe Dash Ft. T-Pain - My Own Step
25. Sean Paul - Come & Get It
26. Shawty Lo ft. Lil\' Wayne and Trey Songz - Got What They Need
27. Sophia Fresh - This Instant
28. The Bloody Beetroots ft. Steve Aoki - Warp 1.9
29. Toni Braxton Ft. Sean Paul - Lookin At Me
30. T-Pain - Take Your Shirt Off
31. TQ - Electronic Remix (Ft. The Vill)
32. Trey Songz - Already Taken
33. Trey Songz - Say Aah
34. Wisin y Yandel - Irresistible
35. YV ft. T-Pain & Fabo & Polow Da Don - Own Step 


PLEASEEEEEEEEEEE Seed and enjoy!!!	